<svg width="25" height="30" viewBox="0 0 25 30" fill="none" xmlns="http://www.w3.org/2000/svg">
<path d="M0.945475 1.54864C0.983728 1.31158 1.02958 1.06359 1.08304 0.804663C1.13744 0.54589 1.19563 0.299888 1.25759 0.0666571L9.57827 1.40934L9.85301 8.75056L5.06263 12.2097C5.86236 14.1873 6.88747 16.0495 8.13794 17.7963C9.38856 19.5421 10.7869 21.0506 12.3331 22.3216L17.0764 18.9278L24.0114 21.3968L22.6687 29.7175C22.424 29.7267 22.1713 29.7102 21.9105 29.6681L21.1638 29.5476C18.1057 29.0542 15.235 27.8914 12.5516 26.0593C9.86704 24.228 7.57954 22.0104 5.68907 19.4063C3.79845 16.8032 2.41179 13.9409 1.52909 10.8194C0.646546 7.69691 0.452009 4.60667 0.945475 1.54864Z" fill="white"/>
</svg>
