<svg width="33" height="33" viewBox="0 0 33 33" fill="none" xmlns="http://www.w3.org/2000/svg">
<path d="M16.5 23.8734C16.225 23.8734 15.9672 23.8301 15.7266 23.7435C15.4859 23.6583 15.2625 23.5125 15.0563 23.3062L7.63125 15.8812C7.25312 15.5031 7.06406 15.0219 7.06406 14.4375C7.06406 13.8531 7.25312 13.3719 7.63125 12.9938C8.00937 12.6156 8.49887 12.4176 9.09975 12.3997C9.702 12.3833 10.1922 12.5641 10.5703 12.9422L14.4375 16.8094V2.0625C14.4375 1.47812 14.6355 0.987938 15.0315 0.591938C15.4261 0.197313 15.9156 0 16.5 0C17.0844 0 17.5746 0.197313 17.9706 0.591938C18.3652 0.987938 18.5625 1.47812 18.5625 2.0625V16.8094L22.4297 12.9422C22.8078 12.5641 23.298 12.3833 23.9003 12.3997C24.5011 12.4176 24.9906 12.6156 25.3687 12.9938C25.7469 13.3719 25.9359 13.8531 25.9359 14.4375C25.9359 15.0219 25.7469 15.5031 25.3687 15.8812L17.9438 23.3062C17.7375 23.5125 17.5141 23.6583 17.2734 23.7435C17.0328 23.8301 16.775 23.8734 16.5 23.8734ZM4.125 33C2.99062 33 2.01987 32.5964 1.21275 31.7893C0.40425 30.9808 0 30.0094 0 28.875V24.75C0 24.1656 0.197313 23.6754 0.591938 23.2794C0.987938 22.8848 1.47812 22.6875 2.0625 22.6875C2.64687 22.6875 3.13706 22.8848 3.53306 23.2794C3.92769 23.6754 4.125 24.1656 4.125 24.75V28.875H28.875V24.75C28.875 24.1656 29.073 23.6754 29.469 23.2794C29.8636 22.8848 30.3531 22.6875 30.9375 22.6875C31.5219 22.6875 32.0114 22.8848 32.406 23.2794C32.802 23.6754 33 24.1656 33 24.75V28.875C33 30.0094 32.5964 30.9808 31.7893 31.7893C30.9808 32.5964 30.0094 33 28.875 33H4.125Z" fill="#F99D1B"/>
</svg>
