<svg width="33" height="33" viewBox="0 0 33 33" fill="none" xmlns="http://www.w3.org/2000/svg">
<path d="M24.64 32.6101L19.8 27.1774L21.8416 25.0767L24.64 27.9561L30.9584 21.4549L33 24.0083M17.248 32.6101H3.52C2.58644 32.6101 1.69111 32.2285 1.03098 31.5493C0.370856 30.8701 0 29.9489 0 28.9883V3.6355C0 1.62538 1.5664 0.0136719 3.52 0.0136719H28.16C29.0936 0.0136719 29.9889 0.395256 30.649 1.07448C31.3091 1.7537 31.68 2.67493 31.68 3.6355V17.7606C30.1312 16.8371 28.3184 16.3119 26.4 16.3119L24.64 16.4568V14.501H7.04V18.1228H20.5744C19.1182 19.1106 17.9232 20.455 17.0969 22.0354C16.2705 23.6159 15.8386 25.3827 15.84 27.1774C15.84 29.1513 16.3504 31.0165 17.248 32.6101ZM15.84 21.7446H7.04V25.3665H15.84M24.64 7.25733H7.04V10.8792H24.64" fill="white"/>
</svg>
