<svg width="33" height="33" viewBox="0 0 33 33" fill="none" xmlns="http://www.w3.org/2000/svg">
<path d="M24.64 32.5964L19.8 27.1637L21.8416 25.063L24.64 27.9424L30.9584 21.4412L33 23.9946M17.248 32.5964H3.52C2.58644 32.5964 1.69111 32.2149 1.03098 31.5356C0.370856 30.8564 0 29.9352 0 28.9746V3.62183C0 1.61171 1.5664 0 3.52 0H28.16C29.0936 0 29.9889 0.381584 30.649 1.06081C31.3091 1.74003 31.68 2.66126 31.68 3.62183V17.747C30.1312 16.8234 28.3184 16.2982 26.4 16.2982L24.64 16.4431V14.4873H7.04V18.1091H20.5744C19.1182 19.0969 17.9232 20.4414 17.0969 22.0218C16.2705 23.6022 15.8386 25.3691 15.84 27.1637C15.84 29.1376 16.3504 31.0028 17.248 32.5964ZM15.84 21.731H7.04V25.3528H15.84M24.64 7.24365H7.04V10.8655H24.64" fill="#F99D1B"/>
</svg>
