<svg width="18" height="19" viewBox="0 0 18 19" fill="none" xmlns="http://www.w3.org/2000/svg">
<path d="M16.6 18.5625L10.3 12.2625C9.8 12.6625 9.225 12.9792 8.575 13.2125C7.925 13.4458 7.23333 13.5625 6.5 13.5625C4.68333 13.5625 3.146 12.9335 1.888 11.6755C0.629333 10.4168 0 8.87917 0 7.0625C0 5.24583 0.629333 3.70817 1.888 2.4495C3.146 1.1915 4.68333 0.5625 6.5 0.5625C8.31667 0.5625 9.85433 1.1915 11.113 2.4495C12.371 3.70817 13 5.24583 13 7.0625C13 7.79583 12.8833 8.4875 12.65 9.1375C12.4167 9.7875 12.1 10.3625 11.7 10.8625L18 17.1625L16.6 18.5625ZM6.5 11.5625C7.75 11.5625 8.81267 11.1252 9.688 10.2505C10.5627 9.37517 11 8.3125 11 7.0625C11 5.8125 10.5627 4.74983 9.688 3.8745C8.81267 2.99983 7.75 2.5625 6.5 2.5625C5.25 2.5625 4.18733 2.99983 3.312 3.8745C2.43733 4.74983 2 5.8125 2 7.0625C2 8.3125 2.43733 9.37517 3.312 10.2505C4.18733 11.1252 5.25 11.5625 6.5 11.5625Z" fill="#B1B1B1"/>
</svg>
